<?xml version="1.0" encoding="UTF-8"?>
<!DOCTYPE svg PUBLIC "-//W3C//DTD SVG 1.1//EN" "http://www.w3.org/Graphics/SVG/1.1/DTD/svg11.dtd">
<svg xmlns="http://www.w3.org/2000/svg" version="1.1" width="243px" height="231px" style="shape-rendering:geometricPrecision; text-rendering:geometricPrecision; image-rendering:optimizeQuality; fill-rule:evenodd; clip-rule:evenodd" xmlns:xlink="http://www.w3.org/1999/xlink">
<g><path style="opacity:0.976" fill="#ecb52f" d="M 82.5,-0.5 C 83.5,-0.5 84.5,-0.5 85.5,-0.5C 97.8281,5.99529 109.828,12.9953 121.5,20.5C 120.824,34.9897 120.491,49.323 120.5,63.5C 108.416,70.959 96.2497,78.2924 84,85.5C 72.2491,78.374 60.4158,71.374 48.5,64.5C 47.5007,49.8485 47.1674,35.1818 47.5,20.5C 54.3273,15.3456 61.6606,11.0123 69.5,7.5C 71.0269,7.57298 72.0269,6.90632 72.5,5.5C 75.9015,3.47214 79.2349,1.47214 82.5,-0.5 Z"/></g>
<g><path style="opacity:0.976" fill="#ecb52f" d="M 161.5,-0.5 C 162.833,-0.5 164.167,-0.5 165.5,-0.5C 176.855,6.26617 188.355,12.9328 200,19.5C 200.608,22.8173 201.108,26.1506 201.5,29.5C 200.768,40.0573 200.435,51.3906 200.5,63.5C 187.945,70.6957 175.445,78.029 163,85.5C 151.456,78.0378 139.623,71.0378 127.5,64.5C 126.501,49.8485 126.167,35.1818 126.5,20.5C 138.332,13.7516 149.999,6.75156 161.5,-0.5 Z"/></g>
<g><path style="opacity:0.957" fill="#9c8251" d="M 72.5,5.5 C 72.0269,6.90632 71.0269,7.57298 69.5,7.5C 69.9731,6.09368 70.9731,5.42702 72.5,5.5 Z"/></g>
<g><path style="opacity:0.976" fill="#ecb62f" d="M 202.5,68.5 C 202.833,68.5 203.167,68.5 203.5,68.5C 206.24,70.5595 209.24,72.2262 212.5,73.5C 213.492,73.3284 214.158,73.6618 214.5,74.5C 217.976,77.6232 221.976,79.9565 226.5,81.5C 227.71,81.9321 228.71,82.5987 229.5,83.5C 231.336,85.588 233.669,86.9213 236.5,87.5C 237.496,87.4142 238.329,87.7476 239,88.5C 239.939,91.7641 240.439,95.0974 240.5,98.5C 239.94,109.718 239.607,121.052 239.5,132.5C 227.177,139.909 214.677,146.909 202,153.5C 189.154,146.992 176.654,139.825 164.5,132C 165.833,120.667 165.833,109.333 164.5,98C 165.282,95.2595 165.782,92.4262 166,89.5C 174.314,84.6001 182.481,79.6001 190.5,74.5C 192.23,73.9744 193.564,72.9744 194.5,71.5C 194.833,71.5 195.167,71.5 195.5,71.5C 197.954,70.7729 200.287,69.7729 202.5,68.5 Z"/></g>
<g><path style="opacity:0.976" fill="#edb62f" d="M 45.5,68.5 C 57.4968,75.4986 69.4968,82.4986 81.5,89.5C 81.5,90.1667 81.5,90.8333 81.5,91.5C 81.5,101.5 81.5,111.5 81.5,121.5C 81.542,125.188 81.542,128.854 81.5,132.5C 69.3191,139.757 56.9857,146.757 44.5,153.5C 31.9472,147.06 19.6139,140.393 7.5,133.5C 7.5,118.833 7.5,104.167 7.5,89.5C 19.738,82.4592 31.9047,75.1259 44,67.5C 44.3826,68.056 44.8826,68.3893 45.5,68.5 Z"/></g>
<g><path style="opacity:0.039" fill="#454543" d="M 203.5,68.5 C 207.272,68.8838 210.272,70.5505 212.5,73.5C 209.24,72.2262 206.24,70.5595 203.5,68.5 Z"/></g>
<g><path style="opacity:0.039" fill="#484846" d="M 214.5,74.5 C 218.997,75.9996 222.997,78.333 226.5,81.5C 221.976,79.9565 217.976,77.6232 214.5,74.5 Z"/></g>
<g><path style="opacity:0.098" fill="#514d45" d="M 229.5,83.5 C 232.331,84.0787 234.664,85.412 236.5,87.5C 233.669,86.9213 231.336,85.588 229.5,83.5 Z"/></g>
<g><path style="opacity:0.039" fill="#42403d" d="M 47.5,20.5 C 47.1674,35.1818 47.5007,49.8485 48.5,64.5C 60.4158,71.374 72.2491,78.374 84,85.5C 96.2497,78.2924 108.416,70.959 120.5,63.5C 120.491,49.323 120.824,34.9897 121.5,20.5C 123.372,24.2992 125.039,24.2992 126.5,20.5C 126.167,35.1818 126.501,49.8485 127.5,64.5C 139.623,71.0378 151.456,78.0378 163,85.5C 175.445,78.029 187.945,70.6957 200.5,63.5C 203.734,64.0056 204.401,65.6722 202.5,68.5C 200.287,69.7729 197.954,70.7729 195.5,71.5C 195.167,70.1667 194.833,70.1667 194.5,71.5C 192.368,71.5544 191.035,72.5544 190.5,74.5C 182.481,79.6001 174.314,84.6001 166,89.5C 165.782,92.4262 165.282,95.2595 164.5,98C 165.833,109.333 165.833,120.667 164.5,132C 176.654,139.825 189.154,146.992 202,153.5C 214.677,146.909 227.177,139.909 239.5,132.5C 240.5,132.5 241.5,132.5 242.5,132.5C 242.5,132.833 242.5,133.167 242.5,133.5C 241.167,133.833 241.167,134.167 242.5,134.5C 242.5,134.833 242.5,135.167 242.5,135.5C 238.119,139.211 233.452,142.711 228.5,146C 220.151,149.701 212.317,154.201 205,159.5C 204.99,174.248 205.157,188.748 205.5,203C 203.659,206.628 200.659,208.628 196.5,209C 187.997,214.084 179.664,219.417 171.5,225C 168.298,226.483 164.964,226.817 161.5,226C 150.542,220.521 139.875,214.521 129.5,208C 127.5,207.333 125.5,207.333 123.5,208C 111.127,213.935 99.2934,220.769 88,228.5C 87.2588,227.359 86.4255,227.359 85.5,228.5C 71.9557,221.478 58.789,213.811 46,205.5C 45.8002,201.247 45.3002,197.08 44.5,193C 45.1515,183.977 45.1515,174.31 44.5,164C 45.1667,162.333 45.8333,160.667 46.5,159C 32.602,152.765 19.4353,145.265 7,136.5C 5.86762,129.434 5.36762,122.267 5.5,115C 5.66667,108.5 5.83333,102 6,95.5C 6.19088,93.2922 6.69088,91.2922 7.5,89.5C 7.5,104.167 7.5,118.833 7.5,133.5C 19.6139,140.393 31.9472,147.06 44.5,153.5C 56.9857,146.757 69.3191,139.757 81.5,132.5C 83.0853,131.526 84.0853,130.026 84.5,128C 83.7748,120.437 83.4414,112.604 83.5,104.5C 84.8333,104.167 84.8333,103.833 83.5,103.5C 83.5,102.833 83.5,102.167 83.5,101.5C 84.8333,101.167 84.8333,100.833 83.5,100.5C 83.3626,96.8209 84.0293,93.3209 85.5,90C 84.1221,88.6658 82.7887,88.4991 81.5,89.5C 69.4968,82.4986 57.4968,75.4986 45.5,68.5C 47.6456,68.3036 47.8122,67.3036 46,65.5C 45.3333,52.5 45.3333,39.5 46,26.5C 46.1909,24.2922 46.6909,22.2922 47.5,20.5 Z M 83.5,100.5 C 82.8333,97.5 82.1667,94.5 81.5,91.5C 81.5,90.8333 81.5,90.1667 81.5,89.5C 82.7887,88.4991 84.1221,88.6658 85.5,90C 84.0293,93.3209 83.3626,96.8209 83.5,100.5 Z M 160.5,87.5 C 164.992,88.4916 165.659,90.6582 162.5,94C 163.343,104.745 163.677,116.079 163.5,128C 163.085,130.026 162.085,131.526 160.5,132.5C 161.455,119.548 161.455,105.215 160.5,89.5C 161.506,89.0623 161.506,88.3957 160.5,87.5 Z M 78.5,85.5 C 76.9719,85.4827 76.4719,84.816 77,83.5C 77.7172,84.0442 78.2172,84.7109 78.5,85.5 Z M 153.5,83.5 C 152.5,83.5 151.5,83.5 150.5,83.5C 150.047,82.5416 149.381,81.7083 148.5,81C 150.668,80.7506 152.335,81.5839 153.5,83.5 Z M 83.5,104.5 C 83.4414,112.604 83.7748,120.437 84.5,128C 84.0853,130.026 83.0853,131.526 81.5,132.5C 81.542,128.854 81.542,125.188 81.5,121.5C 82.1667,115.833 82.8333,110.167 83.5,104.5 Z"/></g>
<g><path style="opacity:0.039" fill="#403f3e" d="M 150.5,83.5 C 151.5,83.5 152.5,83.5 153.5,83.5C 153.5,84.1667 153.833,84.5 154.5,84.5C 155.209,85.404 156.209,85.7373 157.5,85.5C 157.5,86.1667 157.833,86.5 158.5,86.5C 158.842,87.3382 159.508,87.6716 160.5,87.5C 161.506,88.3957 161.506,89.0623 160.5,89.5C 156.995,87.6777 153.662,85.6777 150.5,83.5 Z"/></g>
<g><path style="opacity:0.976" fill="#ecb62e" d="M 135.5,74.5 C 139.995,78.2513 144.995,81.2513 150.5,83.5C 153.662,85.6777 156.995,87.6777 160.5,89.5C 161.455,105.215 161.455,119.548 160.5,132.5C 148.287,139.771 135.954,146.771 123.5,153.5C 110.85,147.176 98.5166,140.343 86.5,133C 86.1667,122 85.8333,111 85.5,100C 86.2931,96.5894 86.7931,93.0894 87,89.5C 92.8134,85.6835 98.6467,82.0168 104.5,78.5C 105.492,78.6716 106.158,78.3382 106.5,77.5C 112.271,74.7801 117.938,71.7801 123.5,68.5C 127.553,70.5266 131.553,72.5266 135.5,74.5 Z"/></g>
<g><path style="opacity:0.039" fill="#373734" d="M 81.5,91.5 C 82.1667,94.5 82.8333,97.5 83.5,100.5C 83.5,100.833 83.5,101.167 83.5,101.5C 82.1667,102.167 82.1667,102.833 83.5,103.5C 83.5,103.833 83.5,104.167 83.5,104.5C 82.8333,110.167 82.1667,115.833 81.5,121.5C 81.5,111.5 81.5,101.5 81.5,91.5 Z"/></g>
<g><path style="opacity:0.976" fill="#edb62e" d="M 162.5,136.5 C 162.833,136.5 163.167,136.5 163.5,136.5C 174.807,143.825 186.474,150.658 198.5,157C 199.381,157.708 200.047,158.542 200.5,159.5C 200.402,172.549 200.402,185.715 200.5,199C 199.643,201.019 198.309,202.519 196.5,203.5C 185.295,209.688 174.129,216.021 163,222.5C 150.242,215.366 137.742,207.866 125.5,200C 126.441,186.557 126.608,172.723 126,158.5C 138.281,151.28 150.447,143.946 162.5,136.5 Z"/></g>
<g><path style="opacity:0.976" fill="#edb62e" d="M 83.5,137.5 C 83.8333,137.5 84.1667,137.5 84.5,137.5C 95.775,144.811 107.442,151.645 119.5,158C 121.028,159.648 121.695,161.648 121.5,164C 121.544,176.559 121.377,189.059 121,201.5C 108.797,209.016 96.464,216.35 84,223.5C 72.444,216.301 60.6107,209.468 48.5,203C 47.8333,202 47.1667,201 46.5,200C 47.8333,190 47.8333,180 46.5,170C 47.297,166.255 47.797,162.421 48,158.5C 52.3161,155.934 56.4828,153.267 60.5,150.5C 66.3505,148.293 71.6838,145.293 76.5,141.5C 79.0041,140.416 81.3374,139.083 83.5,137.5 Z"/></g>
<g><path style="opacity:0.098" fill="#5d5d5d" d="M 200.5,159.5 C 201.234,160.878 201.901,162.378 202.5,164C 201.271,176.72 201.271,188.887 202.5,200.5C 201.288,202.923 199.288,203.923 196.5,203.5C 198.309,202.519 199.643,201.019 200.5,199C 200.402,185.715 200.402,172.549 200.5,159.5 Z"/></g>
</svg>
